<svg width="24" height="24" viewBox="0 0 24 24" fill="none" xmlns="http://www.w3.org/2000/svg">
<g clip-path="url(#clip0_2692_640)">
<path d="M20.8428 17.136C20.5101 17.9046 20.1163 18.6121 19.66 19.2626C19.0381 20.1494 18.5288 20.7632 18.1364 21.104C17.528 21.6635 16.8762 21.9501 16.1782 21.9664C15.6771 21.9664 15.0728 21.8238 14.3693 21.5345C13.6636 21.2466 13.015 21.104 12.422 21.104C11.8 21.104 11.133 21.2466 10.4195 21.5345C9.70493 21.8238 9.12928 21.9745 8.68916 21.9894C8.01981 22.018 7.35264 21.7233 6.68668 21.104C6.26164 20.7333 5.72999 20.0978 5.09309 19.1974C4.40976 18.236 3.84796 17.1211 3.40784 15.85C2.93648 14.4771 2.7002 13.1476 2.7002 11.8605C2.7002 10.3862 3.01878 9.11454 3.65689 8.04893C4.1584 7.19299 4.82557 6.5178 5.66059 6.02214C6.49562 5.52648 7.39786 5.27389 8.36949 5.25773C8.90114 5.25773 9.59833 5.42218 10.4647 5.74538C11.3287 6.06967 11.8834 6.23412 12.1266 6.23412C12.3085 6.23412 12.9247 6.04183 13.9694 5.65847C14.9573 5.30295 15.7911 5.15575 16.4742 5.21373C18.3251 5.36311 19.7157 6.09276 20.6405 7.40728C18.9851 8.41029 18.1662 9.81512 18.1825 11.6173C18.1975 13.0211 18.7067 14.1892 19.7076 15.1167C20.1611 15.5472 20.6676 15.8799 21.2312 16.1162C21.109 16.4706 20.98 16.8101 20.8428 17.136ZM16.5978 0.431458C16.5978 1.53171 16.1958 2.55901 15.3946 3.50987C14.4277 4.64026 13.2582 5.29345 11.99 5.19038C11.9738 5.05838 11.9645 4.91946 11.9645 4.77347C11.9645 3.71723 12.4243 2.58685 13.2408 1.66261C13.6485 1.19464 14.167 0.805542 14.7957 0.495147C15.4231 0.189383 16.0166 0.0202896 16.5747 -0.00866699C16.591 0.138419 16.5978 0.285515 16.5978 0.431444V0.431458Z" fill="black"/>
</g>
<defs>
<clipPath id="clip0_2692_640">
<rect width="24" height="24" fill="white" transform="translate(0 -0.00891113)"/>
</clipPath>
</defs>
</svg>
