<svg width="25" height="24" viewBox="0 0 25 24" fill="none" xmlns="http://www.w3.org/2000/svg">
<g clip-path="url(#clip0_2692_2870)">
<path d="M24.5 11.9911C24.5 5.36367 19.1274 -0.00891113 12.5 -0.00891113C5.87258 -0.00891113 0.5 5.36367 0.5 11.9911C0.5 17.9805 4.8882 22.9451 10.625 23.8453V15.4598H7.57812V11.9911H10.625V9.34734C10.625 6.33984 12.4166 4.67859 15.1576 4.67859C16.4701 4.67859 17.8438 4.91296 17.8438 4.91296V7.86609H16.3306C14.84 7.86609 14.375 8.79117 14.375 9.74109V11.9911H17.7031L17.1711 15.4598H14.375V23.8453C20.1118 22.9451 24.5 17.9805 24.5 11.9911Z" fill="#1877F2"/>
<path d="M17.1711 15.4598L17.7031 11.9911H14.375V9.74109C14.375 8.7921 14.84 7.86609 16.3306 7.86609H17.8438V4.91296C17.8438 4.91296 16.4705 4.67859 15.1576 4.67859C12.4166 4.67859 10.625 6.33984 10.625 9.34734V11.9911H7.57812V15.4598H10.625V23.8453C11.8674 24.0397 13.1326 24.0397 14.375 23.8453V15.4598H17.1711Z" fill="white"/>
</g>
<defs>
<clipPath id="clip0_2692_2870">
<rect width="24" height="24" fill="white" transform="translate(0.5 -0.00891113)"/>
</clipPath>
</defs>
</svg>
