<svg width="25" height="24" viewBox="0 0 25 24" fill="none" xmlns="http://www.w3.org/2000/svg">
<g clip-path="url(#clip0_2692_648)">
<path d="M24.2663 12.2675C24.2663 11.4518 24.2001 10.6317 24.059 9.82916H12.7402V14.4501H19.222C18.953 15.9405 18.0888 17.2589 16.8233 18.0967V21.095H20.6903C22.9611 19.005 24.2663 15.9185 24.2663 12.2675Z" fill="#4285F4"/>
<path d="M12.7401 23.9919C15.9766 23.9919 18.7059 22.9293 20.6945 21.095L16.8276 18.0966C15.7517 18.8286 14.3627 19.2431 12.7445 19.2431C9.61388 19.2431 6.95946 17.131 6.00705 14.2914H2.0166V17.3823C4.05371 21.4345 8.2029 23.9919 12.7401 23.9919Z" fill="#34A853"/>
<path d="M6.00277 14.2914C5.50011 12.801 5.50011 11.1872 6.00277 9.69684V6.6059H2.01674C0.314734 9.99667 0.314734 13.9915 2.01674 17.3823L6.00277 14.2914Z" fill="#FBBC04"/>
<path d="M12.7401 4.74075C14.4509 4.71429 16.1044 5.35806 17.3434 6.53976L20.7695 3.11371C18.6001 1.07659 15.7208 -0.0433771 12.7401 -0.00810247C8.2029 -0.00810247 4.05371 2.54931 2.0166 6.6059L6.00264 9.69684C6.95064 6.85282 9.60947 4.74075 12.7401 4.74075Z" fill="#EA4335"/>
</g>
<defs>
<clipPath id="clip0_2692_648">
<rect width="24" height="24" fill="white" transform="translate(0.5 -0.00891113)"/>
</clipPath>
</defs>
</svg>
