<svg width="177" height="44" viewBox="0 0 177 44" fill="none" xmlns="http://www.w3.org/2000/svg">
<path d="M23.5384 39.6671C18.5883 39.6671 13.9332 37.7455 10.4345 34.2608C6.93577 30.7761 5.00647 26.1396 5.00647 21.2093C5.00647 16.279 6.93577 11.6425 10.4345 8.15777C13.9332 4.67305 18.5883 2.75146 23.5384 2.75146C28.4885 2.75146 33.1436 4.67305 36.6423 8.15777C40.141 11.6425 42.0703 16.279 42.0703 21.2093C42.0703 26.1396 40.141 30.7761 36.6423 34.2608C33.1436 37.7455 28.4885 39.6671 23.5384 39.6671ZM23.5384 5.68967C14.948 5.68967 7.95647 12.6532 7.95647 21.2093C7.95647 29.7654 14.948 36.7289 23.5384 36.7289C32.1288 36.7289 39.1203 29.7654 39.1203 21.2093C39.1203 12.6474 32.1288 5.68967 23.5384 5.68967Z" fill="#EFA005"/>
<path d="M28.1173 27.45C27.958 28.3373 27.722 29.1012 27.486 29.7712C27.1084 30.8524 26.66 31.2931 26.1821 31.8925C25.7042 32.4919 25.0611 32.9444 24.2528 33.2617C23.4445 33.5791 22.471 33.7319 21.3382 33.7319C16.9368 33.7319 14.4529 30.9758 13.8511 30.7819L16.2701 26.8976C16.5592 26.9799 18.813 28.925 20.937 28.9191C21.5624 28.9191 22.3353 28.6958 22.7011 27.3031L24.9372 14.7451H30.377L28.1173 27.45ZM27.9462 13.8049C27.1497 13.8049 26.5066 13.5757 26.0051 13.1174C25.5036 12.659 25.2499 12.1066 25.2499 11.4602C25.2499 10.5905 25.539 9.85009 26.1113 9.24481C26.6836 8.63954 27.427 8.33984 28.3356 8.33984C29.1144 8.33984 29.7516 8.5749 30.2531 9.03914C30.7546 9.50925 31.0083 10.0558 31.0083 10.6845C31.0083 11.5542 30.7192 12.2947 30.1469 12.8999C29.5687 13.5052 28.8371 13.8049 27.9462 13.8049Z" fill="#31005C"/>
<path d="M57.6369 27.7027C57.4717 28.59 57.2357 29.3598 57.0056 30.0297C56.628 31.1169 56.1737 31.5576 55.6958 32.1511C55.2179 32.7505 54.5689 33.203 53.7606 33.5203C52.9464 33.8377 51.9729 33.9904 50.8401 33.9904C46.4328 33.9904 43.943 31.2285 43.3412 31.0346L45.7661 27.1444C46.0611 27.2267 48.3149 29.1718 50.4389 29.1718C51.0643 29.1718 51.8372 28.9485 52.2089 27.5499L54.4509 14.9626H59.9025L57.6369 27.7027ZM57.4658 14.0283C56.6693 14.0283 56.0203 13.7991 55.5188 13.3348C55.0173 12.8765 54.7636 12.3182 54.7636 11.6718C54.7636 10.7962 55.0527 10.0617 55.625 9.45052C56.2032 8.84525 56.9407 8.53967 57.8552 8.53967C58.634 8.53967 59.2771 8.77473 59.7786 9.24484C60.2801 9.71496 60.5338 10.2615 60.5338 10.8961C60.5338 11.7717 60.2447 12.5063 59.6724 13.1174C59.0942 13.7286 58.3567 14.0283 57.4658 14.0283Z" fill="#31005C"/>
<path d="M67.5899 28.1199C65.5603 28.1199 63.8906 27.6204 62.5867 26.6156C61.2828 25.6107 60.6279 24.2121 60.6279 22.4198C60.6279 20.1868 61.3418 18.3239 62.7696 16.8313C64.1974 15.3387 66.1267 14.5865 68.5634 14.5865C70.6402 14.5865 72.3394 15.086 73.6492 16.0909C74.9649 17.0958 75.6198 18.4885 75.6198 20.2867C75.6198 22.5197 74.9 24.3825 73.4663 25.8751C72.0326 27.3678 70.0738 28.1199 67.5899 28.1199ZM70.3157 20.8684C70.3157 20.3219 70.1505 19.8753 69.8142 19.5345C69.4838 19.1937 69.0059 19.0232 68.3923 19.0232C67.6607 19.0232 67.0707 19.2936 66.6164 19.8342C66.1621 20.3748 65.932 21.033 65.932 21.8087C65.932 22.3611 66.0972 22.8018 66.4335 23.1426C66.7639 23.4834 67.23 23.6539 67.8318 23.6539C68.5929 23.6539 69.2006 23.3894 69.6431 22.8547C70.0974 22.3199 70.3157 21.6618 70.3157 20.8684Z" fill="#31005C"/>
<path d="M78.1335 17.4719C78.2928 16.661 78.4167 15.8324 78.4993 14.9745H83.7562C83.7562 15.1214 83.6972 15.6679 83.5851 16.6257H83.6854C84.0925 16.0792 84.6176 15.615 85.2666 15.2448C85.9156 14.8746 86.6354 14.6865 87.4319 14.6865C89.1665 14.6865 90.3347 15.3153 90.9365 16.5787C91.9454 15.3153 93.2257 14.6865 94.7833 14.6865C96.1639 14.6865 97.2023 15.0979 97.8985 15.9088C98.5947 16.7256 98.9428 17.6776 98.9428 18.7589C98.9428 19.1467 98.9015 19.5581 98.8189 19.9929L97.456 27.7263H91.9808L93.1726 20.9625C93.2198 20.6864 93.2434 20.4219 93.2434 20.1633C93.2434 19.4229 92.913 19.0468 92.2463 19.0468C91.5147 19.0468 91.0309 19.6932 90.7831 20.986L89.5913 27.7263H84.1397L85.3315 21.0096C85.3787 20.7686 85.4023 20.5218 85.4023 20.2809C85.4023 19.4582 85.0719 19.0468 84.4052 19.0468C84.0807 19.0468 83.7857 19.2114 83.5261 19.5346C83.2665 19.8578 83.0777 20.3455 82.9656 20.9919L81.7738 27.7322H76.3222L78.1335 17.4719Z" fill="#31005C"/>
<path d="M110.802 14.6866C112.471 14.6866 113.769 15.1979 114.684 16.2263C115.598 17.2546 116.058 18.5592 116.058 20.14C116.058 22.3377 115.374 24.2064 114.011 25.7402C112.648 27.2739 110.949 28.0438 108.925 28.0438C108.259 28.0438 107.616 27.9203 106.99 27.6794C106.365 27.4385 105.905 27.1153 105.615 26.7098H105.568L104.329 33.55H98.9012L102.211 14.9746H107.374L107.132 16.3556H107.179C108.117 15.239 109.327 14.6866 110.802 14.6866ZM110.754 20.8686C110.754 20.3339 110.583 19.8932 110.241 19.5464C109.899 19.1997 109.421 19.0234 108.807 19.0234C108.076 19.0234 107.48 19.2938 107.02 19.8344C106.559 20.375 106.323 21.0332 106.323 21.8089C106.323 22.3613 106.495 22.802 106.837 23.1428C107.179 23.4836 107.651 23.6541 108.247 23.6541C109.008 23.6541 109.616 23.3896 110.07 22.8549C110.524 22.3201 110.754 21.662 110.754 20.8686Z" fill="#31005C"/>
<path d="M115.816 26.4216L118.589 23.1249C119.433 23.9652 120.43 24.3883 121.587 24.3883C122.283 24.3883 122.631 24.2003 122.631 23.8301C122.631 23.5069 122.183 23.2248 121.292 22.9839C120.076 22.6313 119.162 22.1729 118.554 21.6147C117.946 21.0564 117.64 20.2866 117.64 19.2993C117.64 17.795 118.241 16.6315 119.439 15.8088C120.643 14.9861 122.053 14.5747 123.675 14.5747C124.696 14.5747 125.675 14.7157 126.608 14.9978C127.54 15.2799 128.289 15.6795 128.861 16.1966L126.059 19.3992C125.782 19.1054 125.404 18.8645 124.914 18.6588C124.425 18.459 123.947 18.3532 123.481 18.3532C122.749 18.3532 122.383 18.5413 122.383 18.9115C122.383 19.076 122.466 19.1995 122.625 19.2876C122.784 19.3757 123.085 19.4756 123.528 19.5932C124.843 19.9164 125.846 20.3806 126.537 20.9859C127.227 21.5912 127.569 22.4315 127.569 23.4951C127.569 24.5764 127.239 25.4872 126.584 26.2218C125.929 26.9563 125.156 27.4676 124.271 27.7496C123.386 28.0317 122.442 28.1727 121.433 28.1727C119.091 28.1669 117.215 27.5851 115.816 26.4216Z" fill="#31005C"/>
<path d="M138.408 18.8764H136.024L135.37 22.4669C135.334 22.7254 135.322 22.9429 135.322 23.1191C135.322 23.46 135.411 23.695 135.588 23.8361C135.765 23.9712 136.036 24.0418 136.39 24.0418C136.78 24.0418 137.134 23.9947 137.464 23.8948L136.809 27.6264C136.308 27.9202 135.411 28.0612 134.131 28.0612C131.24 28.0612 129.8 26.9682 129.8 24.7881C129.8 24.4002 129.841 23.9889 129.924 23.554L130.773 18.8764H128.874L129.558 14.9744H131.358L131.871 12.0891H137.151L136.638 14.9744H139.098L138.408 18.8764Z" fill="#31005C"/>
<path d="M150.969 25.7634C150.857 26.4274 150.798 27.0797 150.798 27.7261H146.125C146.125 27.3735 146.143 26.9857 146.172 26.5626H146.125C145.234 27.5674 144.031 28.0669 142.52 28.0669C141.5 28.0669 140.603 27.7849 139.842 27.2207C139.081 26.6566 138.697 25.8162 138.697 24.6997C138.697 21.3854 141.429 19.7283 146.904 19.7283C146.922 19.646 146.928 19.5579 146.928 19.4638C146.928 19.1406 146.792 18.8938 146.515 18.7234C146.237 18.553 145.866 18.4707 145.394 18.4707C144.373 18.4707 143.423 18.8409 142.544 19.5872L140.16 16.8723C140.921 16.1613 141.854 15.603 142.945 15.1976C144.043 14.7921 145.099 14.5923 146.119 14.5923C148.037 14.5923 149.488 14.986 150.491 15.7676C151.488 16.5491 151.99 17.6539 151.99 19.076C151.99 19.6754 151.925 20.3453 151.795 21.0857L150.969 25.7634ZM146.686 22.9015L146.757 22.4902H146.438C144.456 22.4902 143.47 22.9427 143.47 23.8476C143.47 24.4294 143.842 24.7232 144.591 24.7232C145.128 24.7232 145.582 24.5528 145.966 24.212C146.349 23.8712 146.591 23.4363 146.686 22.9015Z" fill="#31005C"/>
<path d="M154.697 17.4718C154.856 16.6608 154.98 15.8322 155.063 14.9743H160.296C160.249 15.509 160.172 16.0262 160.078 16.5257H160.148C161.028 15.3151 162.113 14.7098 163.411 14.7098C163.848 14.7098 164.19 14.751 164.432 14.8332L163.411 19.4404C163.152 19.3581 162.768 19.317 162.267 19.317C161.47 19.317 160.827 19.5285 160.331 19.9575C159.836 20.3865 159.535 20.9153 159.417 21.5441L158.319 27.7261H152.868L154.697 17.4718Z" fill="#31005C"/>
<path d="M172.905 18.8764H170.521L169.866 22.4669C169.831 22.7254 169.819 22.9429 169.819 23.1191C169.819 23.46 169.908 23.695 170.085 23.8361C170.262 23.9712 170.533 24.0418 170.887 24.0418C171.277 24.0418 171.631 23.9947 171.961 23.8948L171.306 27.6264C170.805 27.9202 169.908 28.0612 168.627 28.0612C165.736 28.0612 164.297 26.9682 164.297 24.7881C164.297 24.4002 164.338 23.9889 164.421 23.554L165.27 18.8764H163.371L164.055 14.9744H165.854L166.368 12.0891H171.648L171.135 14.9744H173.595L172.905 18.8764Z" fill="#31005C"/>
<path d="M70.3155 20.8686C70.3155 20.3221 70.1503 19.8755 69.814 19.5347C69.4836 19.1939 69.0057 19.0234 68.3921 19.0234C67.6605 19.0234 67.0705 19.2938 66.6162 19.8344C66.1619 20.375 65.9318 21.0332 65.9318 21.8089C65.9318 22.3612 66.097 22.802 66.4333 23.1428C66.7637 23.4836 67.2298 23.6541 67.8316 23.6541C68.5927 23.6541 69.2004 23.3896 69.6429 22.8549C70.0972 22.3201 70.3155 21.6619 70.3155 20.8686Z" fill="#EFA005"/>
<path d="M110.753 20.8686C110.753 20.3339 110.582 19.8931 110.24 19.5464C109.898 19.1997 109.42 19.0234 108.806 19.0234C108.075 19.0234 107.479 19.2938 107.019 19.8344C106.559 20.375 106.323 21.0332 106.323 21.8089C106.323 22.3612 106.494 22.802 106.836 23.1428C107.178 23.4836 107.65 23.6541 108.246 23.6541C109.007 23.6541 109.615 23.3896 110.069 22.8549C110.523 22.3201 110.753 21.6619 110.753 20.8686Z" fill="#EFA005"/>
</svg>
