<svg width="31" height="34" viewBox="0 0 31 34" fill="none" xmlns="http://www.w3.org/2000/svg">
<path opacity="0.4" d="M22.485 0.324707H8.51667C3.45 0.324707 0.5 3.29137 0.5 8.37471V25.5914C0.5 30.758 3.45 33.658 8.51667 33.658H22.485C27.6333 33.658 30.5 30.758 30.5 25.5914V8.37471C30.5 3.29137 27.6333 0.324707 22.485 0.324707Z" fill="#31005C"/>
<path fill-rule="evenodd" clip-rule="evenodd" d="M8.9666 8.07471V8.09137C8.24827 8.09137 7.6666 8.67471 7.6666 9.39137C7.6666 10.108 8.24827 10.6914 8.9666 10.6914H13.9483C14.6666 10.6914 15.2499 10.108 15.2499 9.37304C15.2499 8.65804 14.6666 8.07471 13.9483 8.07471H8.9666ZM22.0333 18.2247H8.9666C8.24827 18.2247 7.6666 17.6414 7.6666 16.9247C7.6666 16.208 8.24827 15.623 8.9666 15.623H22.0333C22.7499 15.623 23.3333 16.208 23.3333 16.9247C23.3333 17.6414 22.7499 18.2247 22.0333 18.2247ZM22.0333 25.8414H8.9666C8.4666 25.908 7.98327 25.658 7.7166 25.2414C7.44993 24.808 7.44993 24.258 7.7166 23.8414C7.98327 23.408 8.4666 23.1747 8.9666 23.2247H22.0333C22.6983 23.2914 23.1999 23.858 23.1999 24.5414C23.1999 25.2064 22.6983 25.7747 22.0333 25.8414Z" fill="#31005C"/>
</svg>
