<svg width="281" height="68" viewBox="0 0 281 68" fill="none" xmlns="http://www.w3.org/2000/svg">
<path d="M37.9627 61.9306C30.1493 61.9306 22.8016 58.8923 17.2791 53.3822C11.7567 47.8722 8.71143 40.5411 8.71143 32.7453C8.71143 24.9495 11.7567 17.6183 17.2791 12.1083C22.8016 6.59834 30.1493 3.55994 37.9627 3.55994C45.7761 3.55994 53.1239 6.59834 58.6463 12.1083C64.1688 17.6183 67.214 24.9495 67.214 32.7453C67.214 40.5411 64.1688 47.8722 58.6463 53.3822C53.1239 58.8923 45.7761 61.9306 37.9627 61.9306ZM37.9627 8.20581C24.4034 8.20581 13.3678 19.2165 13.3678 32.7453C13.3678 46.2741 24.4034 57.2848 37.9627 57.2848C51.5221 57.2848 62.5577 46.2741 62.5577 32.7453C62.5577 19.2072 51.5221 8.20581 37.9627 8.20581Z" fill="#EFA005"/>
<path d="M45.1901 42.6131C44.9386 44.0161 44.5661 45.224 44.1936 46.2833C43.5976 47.993 42.8898 48.6899 42.1355 49.6376C41.3812 50.5854 40.3661 51.3008 39.0902 51.8026C37.8144 52.3043 36.2778 52.5459 34.4897 52.5459C27.5424 52.5459 23.6218 48.1881 22.6719 47.8815L26.4901 41.7396C26.9464 41.8697 30.5039 44.9453 33.8565 44.936C34.8436 44.936 36.0636 44.5829 36.641 42.3808L40.1705 22.5243H48.7568L45.1901 42.6131ZM44.92 21.0376C43.6628 21.0376 42.6477 20.6753 41.8561 19.9505C41.0645 19.2257 40.6641 18.3523 40.6641 17.3302C40.6641 15.955 41.1204 14.7843 42.0237 13.8272C42.9271 12.8702 44.1005 12.3963 45.5346 12.3963C46.7639 12.3963 47.7697 12.768 48.5613 13.502C49.3529 14.2454 49.7533 15.1095 49.7533 16.1037C49.7533 17.4789 49.297 18.6496 48.3937 19.6067C47.481 20.5637 46.3262 21.0376 44.92 21.0376Z" fill="#31005C"/>
<path d="M91.785 43.0125C91.5242 44.4156 91.1517 45.6328 90.7885 46.6921C90.1925 48.411 89.4754 49.1079 88.7211 50.0464C87.9668 50.9941 86.9424 51.7096 85.6665 52.2114C84.3814 52.7131 82.8447 52.9547 81.0567 52.9547C74.1001 52.9547 70.1701 48.5876 69.2202 48.281L73.0478 42.1298C73.5134 42.2599 77.0708 45.3355 80.4234 45.3355C81.4106 45.3355 82.6306 44.9824 83.2173 42.7709L86.7561 22.868H95.3611L91.785 43.0125ZM91.5149 21.3906C90.2577 21.3906 89.2333 21.0283 88.4417 20.2942C87.6501 19.5695 87.2497 18.6867 87.2497 17.6647C87.2497 16.2802 87.706 15.1187 88.6093 14.1524C89.522 13.1953 90.6861 12.7122 92.1295 12.7122C93.3588 12.7122 94.3739 13.0838 95.1655 13.8272C95.9571 14.5705 96.3575 15.4346 96.3575 16.4381C96.3575 17.8226 95.9012 18.9841 94.9979 19.9504C94.0852 20.9168 92.9211 21.3906 91.5149 21.3906Z" fill="#31005C"/>
<path d="M107.495 43.6723C104.291 43.6723 101.656 42.8825 99.5977 41.2936C97.5396 39.7047 96.5059 37.4933 96.5059 34.6593C96.5059 31.1285 97.6327 28.183 99.8864 25.8229C102.14 23.4628 105.185 22.2734 109.031 22.2734C112.31 22.2734 114.992 23.0632 117.059 24.6521C119.136 26.241 120.17 28.4432 120.17 31.2864C120.17 34.8173 119.033 37.7628 116.77 40.1229C114.507 42.483 111.416 43.6723 107.495 43.6723ZM111.797 32.2063C111.797 31.3422 111.537 30.636 111.006 30.0971C110.484 29.5582 109.73 29.2887 108.761 29.2887C107.607 29.2887 106.675 29.7161 105.958 30.571C105.241 31.4258 104.878 32.4665 104.878 33.693C104.878 34.5664 105.139 35.2633 105.67 35.8022C106.191 36.3411 106.927 36.6106 107.877 36.6106C109.078 36.6106 110.037 36.1925 110.736 35.3469C111.453 34.5014 111.797 33.4607 111.797 32.2063Z" fill="#31005C"/>
<path d="M124.137 26.8359C124.389 25.5536 124.584 24.2435 124.715 22.8869H133.012C133.012 23.1192 132.919 23.9833 132.742 25.4979H132.901C133.543 24.6337 134.372 23.8997 135.396 23.3143C136.421 22.7289 137.557 22.4316 138.814 22.4316C141.552 22.4316 143.396 23.4258 144.346 25.4235C145.938 23.4258 147.959 22.4316 150.418 22.4316C152.597 22.4316 154.236 23.082 155.335 24.3643C156.434 25.6558 156.983 27.1611 156.983 28.8708C156.983 29.484 156.918 30.1344 156.788 30.822L154.637 43.05H145.994L147.875 32.3552C147.95 31.9185 147.987 31.5003 147.987 31.0915C147.987 29.9207 147.466 29.3261 146.413 29.3261C145.259 29.3261 144.495 30.3481 144.104 32.3923L142.223 43.05H133.618L135.499 32.4295C135.573 32.0485 135.611 31.6583 135.611 31.2773C135.611 29.9765 135.089 29.3261 134.037 29.3261C133.525 29.3261 133.059 29.5862 132.649 30.0973C132.239 30.6083 131.941 31.3795 131.764 32.4016L129.883 43.0592H121.278L124.137 26.8359Z" fill="#31005C"/>
<path d="M175.702 22.4316C178.338 22.4316 180.387 23.24 181.83 24.866C183.273 26.4921 184 28.5548 184 31.0543C184 34.5294 182.92 37.4842 180.768 39.9093C178.617 42.3345 175.935 43.5517 172.741 43.5517C171.688 43.5517 170.673 43.3566 169.686 42.9756C168.699 42.5947 167.973 42.0836 167.516 41.4425H167.442L165.486 52.2581H156.918L162.143 22.8869H170.292L169.91 25.0704H169.984C171.465 23.305 173.374 22.4316 175.702 22.4316ZM175.628 32.2065C175.628 31.3609 175.358 30.6641 174.818 30.1159C174.277 29.5676 173.523 29.2889 172.555 29.2889C171.4 29.2889 170.459 29.7163 169.733 30.5711C169.006 31.426 168.634 32.4667 168.634 33.6932C168.634 34.5666 168.904 35.2635 169.444 35.8024C169.984 36.3413 170.729 36.6108 171.67 36.6108C172.871 36.6108 173.83 36.1927 174.547 35.3471C175.265 34.5016 175.628 33.4609 175.628 32.2065Z" fill="#31005C"/>
<path d="M183.617 40.9869L187.994 35.7742C189.326 37.1029 190.9 37.7719 192.725 37.7719C193.824 37.7719 194.373 37.4746 194.373 36.8892C194.373 36.3781 193.666 35.9321 192.259 35.5512C190.341 34.9937 188.898 34.2689 187.938 33.3862C186.979 32.5035 186.495 31.2863 186.495 29.7253C186.495 27.3466 187.445 25.5068 189.335 24.206C191.235 22.9051 193.461 22.2547 196.022 22.2547C197.633 22.2547 199.179 22.4777 200.65 22.9237C202.122 23.3697 203.304 24.0015 204.208 24.8192L199.784 29.8832C199.346 29.4186 198.75 29.0377 197.977 28.7125C197.204 28.3965 196.45 28.2293 195.714 28.2293C194.56 28.2293 193.982 28.5266 193.982 29.112C193.982 29.3722 194.113 29.5673 194.364 29.7067C194.616 29.8461 195.09 30.004 195.789 30.1898C197.866 30.7009 199.449 31.4349 200.538 32.392C201.628 33.349 202.168 34.6778 202.168 36.3596C202.168 38.0692 201.647 39.5095 200.613 40.6709C199.579 41.8324 198.359 42.6408 196.962 43.0868C195.565 43.5328 194.075 43.7558 192.483 43.7558C188.786 43.7465 185.824 42.8266 183.617 40.9869Z" fill="#31005C"/>
<path d="M219.276 29.0565H215.514L214.48 34.7338C214.425 35.1426 214.406 35.4864 214.406 35.7652C214.406 36.3041 214.546 36.6758 214.825 36.8988C215.104 37.1125 215.533 37.224 216.091 37.224C216.706 37.224 217.265 37.1497 217.786 36.9917L216.753 42.892C215.961 43.3565 214.546 43.5795 212.525 43.5795C207.961 43.5795 205.689 41.8513 205.689 38.404C205.689 37.7908 205.754 37.1404 205.885 36.4528L207.226 29.0565H204.227L205.307 22.8868H208.148L208.958 18.3246H217.293L216.483 22.8868H220.366L219.276 29.0565Z" fill="#31005C"/>
<path d="M239.103 39.9461C238.926 40.996 238.833 42.0274 238.833 43.0495H231.458C231.458 42.492 231.486 41.8788 231.532 41.2097H231.458C230.051 42.7986 228.152 43.5884 225.768 43.5884C224.156 43.5884 222.741 43.1424 221.54 42.2504C220.338 41.3584 219.733 40.0297 219.733 38.2643C219.733 33.0237 224.045 30.4035 232.687 30.4035C232.715 30.2734 232.724 30.134 232.724 29.9853C232.724 29.4743 232.51 29.084 232.072 28.8146C231.635 28.5451 231.048 28.415 230.303 28.415C228.692 28.415 227.192 29.0004 225.805 30.1805L222.042 25.8877C223.244 24.7634 224.715 23.8806 226.438 23.2395C228.17 22.5984 229.837 22.2825 231.448 22.2825C234.475 22.2825 236.766 22.905 238.349 24.1408C239.923 25.3766 240.715 27.1235 240.715 29.3721C240.715 30.3198 240.612 31.3791 240.407 32.5498L239.103 39.9461ZM232.342 35.421L232.454 34.7706H231.951C228.822 34.7706 227.267 35.486 227.267 36.917C227.267 37.8368 227.854 38.3014 229.036 38.3014C229.884 38.3014 230.601 38.032 231.206 37.493C231.812 36.9541 232.193 36.2665 232.342 35.421Z" fill="#31005C"/>
<path d="M244.988 26.8355C245.239 25.5532 245.435 24.2431 245.565 22.8865H253.825C253.751 23.7321 253.63 24.5497 253.481 25.3395H253.593C254.98 23.4254 256.694 22.4684 258.742 22.4684C259.432 22.4684 259.972 22.5334 260.354 22.6635L258.742 29.9482C258.333 29.8182 257.727 29.7531 256.936 29.7531C255.679 29.7531 254.663 30.0876 253.881 30.7659C253.099 31.4442 252.624 32.2805 252.438 33.2747L250.706 43.0496H242.101L244.988 26.8355Z" fill="#31005C"/>
<path d="M273.728 29.0565H269.965L268.932 34.7338C268.876 35.1426 268.857 35.4864 268.857 35.7652C268.857 36.3041 268.997 36.6758 269.276 36.8988C269.556 37.1125 269.984 37.224 270.543 37.224C271.157 37.224 271.716 37.1497 272.238 36.9917L271.204 42.892C270.412 43.3565 268.997 43.5795 266.976 43.5795C262.413 43.5795 260.14 41.8513 260.14 38.404C260.14 37.7908 260.206 37.1404 260.336 36.4528L261.677 29.0565H258.678L259.759 22.8868H262.599L263.409 18.3246H271.744L270.934 22.8868H274.817L273.728 29.0565Z" fill="#31005C"/>
<path d="M111.797 32.2065C111.797 31.3424 111.537 30.6362 111.006 30.0973C110.484 29.5584 109.73 29.2889 108.761 29.2889C107.607 29.2889 106.675 29.7164 105.958 30.5712C105.241 31.426 104.878 32.4667 104.878 33.6932C104.878 34.5666 105.139 35.2635 105.67 35.8024C106.191 36.3414 106.927 36.6108 107.877 36.6108C109.078 36.6108 110.037 36.1927 110.736 35.3472C111.453 34.5016 111.797 33.4609 111.797 32.2065Z" fill="#EFA005"/>
<path d="M175.626 32.2065C175.626 31.361 175.356 30.6641 174.815 30.1159C174.275 29.5677 173.521 29.2889 172.552 29.2889C171.398 29.2889 170.457 29.7164 169.731 30.5712C169.004 31.426 168.632 32.4667 168.632 33.6932C168.632 34.5666 168.902 35.2635 169.442 35.8024C169.982 36.3414 170.727 36.6108 171.668 36.6108C172.869 36.6108 173.828 36.1927 174.545 35.3472C175.263 34.5016 175.626 33.4609 175.626 32.2065Z" fill="#EFA005"/>
</svg>
