<svg width="109" height="109" viewBox="0 0 109 109" fill="none" xmlns="http://www.w3.org/2000/svg">
<path d="M74.3608 35.8882V23.0125C74.3608 12.796 65.8225 4.57336 55.3471 4.57336H53.6531C43.18 4.57336 34.6394 12.796 34.6394 23.0125V35.4794L45.0398 35.7973V24.3023C45.0398 21.4865 45.9232 19.0455 47.431 17.331C48.9388 15.6165 51.053 14.5629 53.9188 14.5629H55.0814C57.9472 14.5629 60.0409 15.6096 61.5306 17.3219C63.0203 19.0341 63.89 21.482 63.89 24.3023V35.8564L74.3608 35.8882Z" fill="#3A4747"/>
<path d="M76.5135 76.7405C78.0655 76.7345 79.5523 76.1151 80.6497 75.0177C81.7471 73.9203 82.3663 72.4336 82.3723 70.8816V40.398C82.3663 38.846 81.7471 37.3593 80.6497 36.2619C79.5523 35.1645 78.0655 34.5453 76.5135 34.5394H32.4889C30.9369 34.5453 29.4502 35.1645 28.3527 36.2619C27.2553 37.3593 26.6361 38.846 26.6301 40.398V70.8794C26.6361 72.4313 27.2553 73.918 28.3527 75.0155C29.4502 76.1129 30.9369 76.7323 32.4889 76.7383L76.5135 76.7405Z" fill="#FDB640"/>
<path d="M54.5001 47.2105C50.5874 47.2105 47.3469 50.3669 47.3469 54.2614C47.3469 56.4096 48.5051 58.2582 50.1537 59.5798V67.4074C50.1537 69.7759 52.1361 71.7104 54.5001 71.7104C56.864 71.7104 58.8464 69.7759 58.8464 67.4074V59.5798C60.4973 58.2582 61.6532 56.4074 61.6555 54.2614C61.6555 50.3692 58.415 47.2083 54.5023 47.2083L54.5001 47.2105Z" fill="#3A4747"/>
<path d="M13.8249 84.5975C12.2683 84.6041 10.7773 85.2254 9.67656 86.3262C8.57584 87.4269 7.95457 88.9178 7.948 90.4745V98.5471C7.95457 100.104 8.57584 101.595 9.67656 102.696C10.7773 103.796 12.2683 104.418 13.8249 104.424H95.1752C96.7319 104.418 98.2229 103.796 99.3236 102.696C100.424 101.595 101.046 100.104 101.052 98.5471V90.4745C101.046 88.9178 100.424 87.4269 99.3236 86.3262C98.2229 85.2254 96.7319 84.6041 95.1752 84.5975H13.8249Z" fill="#CCE3F9"/>
<path fill-rule="evenodd" clip-rule="evenodd" d="M87.6044 93.8624C87.1625 93.886 86.7471 94.0806 86.4462 94.4051L82.9219 98.1066C81.3573 99.7552 83.828 102.101 85.3926 100.455L88.9124 96.7533C89.9978 95.6451 89.1554 93.7808 87.6044 93.8649V93.8624Z" fill="#3A4747"/>
<path fill-rule="evenodd" clip-rule="evenodd" d="M92.2709 91.3806C92.003 91.3847 91.7405 91.4564 91.5079 91.5893L87.0639 93.9511C85.0587 95.0183 86.6597 98.0271 88.6648 96.9598L93.1088 94.5958C94.7211 93.7624 94.0853 91.3215 92.2709 91.3806Z" fill="#3A4747"/>
<path fill-rule="evenodd" clip-rule="evenodd" d="M87.7018 93.858C87.3624 93.8491 87.0281 93.9419 86.7418 94.1244C86.4554 94.3069 86.2302 94.5708 86.095 94.8823C85.9598 95.1937 85.9207 95.5384 85.9829 95.8722C86.045 96.2059 86.2055 96.5137 86.4438 96.7556L89.9681 100.455C91.5282 102.233 94.1328 99.753 92.4342 98.1089L88.9144 94.4052C88.7592 94.2377 88.5718 94.1033 88.3635 94.0096C88.1552 93.916 87.9301 93.8629 87.7018 93.858Z" fill="#3A4747"/>
<path fill-rule="evenodd" clip-rule="evenodd" d="M83.0375 91.3806C81.2527 91.3806 80.6668 93.7738 82.2518 94.5959L86.6913 96.9576C88.6964 98.0249 90.2974 95.0207 88.2922 93.9511L83.8527 91.5893C83.6022 91.4516 83.3211 91.379 83.0352 91.3781L83.0375 91.3806Z" fill="#3A4747"/>
<path fill-rule="evenodd" clip-rule="evenodd" d="M87.6882 88.0172C87.237 88.025 86.8073 88.2109 86.4925 88.5342C86.1777 88.8575 86.0035 89.2919 86.0078 89.7431L85.9987 94.9728C85.9669 97.2754 89.439 97.2754 89.4049 94.9728L89.414 89.7431C89.4177 89.5152 89.3756 89.2891 89.2902 89.0778C89.2048 88.8665 89.0779 88.6742 88.917 88.5129C88.756 88.3515 88.5644 88.2243 88.3533 88.1384C88.1422 88.0524 87.916 88.0097 87.6882 88.0128V88.0172ZM71.395 93.8623C70.9531 93.8859 70.5377 94.0806 70.2368 94.4051L66.717 98.1065C65.0162 99.7529 67.6208 102.233 69.1809 100.455L72.7007 96.7532C72.9392 96.508 73.0983 96.1967 73.1574 95.8598C73.2164 95.5229 73.1726 95.1758 73.0317 94.8641C72.8908 94.5524 72.6593 94.2903 72.3674 94.112C72.0754 93.9338 71.7366 93.8477 71.395 93.8648V93.8623Z" fill="#3A4747"/>
<path fill-rule="evenodd" clip-rule="evenodd" d="M76.0595 91.3806C75.7916 91.3847 75.529 91.4564 75.2964 91.5893L70.8524 93.9511C68.8495 95.0183 70.4505 98.0271 72.4533 96.9598L76.8997 94.5958C78.5119 93.7624 77.8761 91.3215 76.0595 91.3806Z" fill="#3A4747"/>
<path fill-rule="evenodd" clip-rule="evenodd" d="M71.4927 93.8581C71.1531 93.8487 70.8184 93.941 70.5318 94.1234C70.2451 94.3057 70.0195 94.5697 69.884 94.8812C69.7485 95.1928 69.7093 95.5376 69.7714 95.8717C69.8334 96.2057 69.994 96.5136 70.2324 96.7557L73.759 100.455C75.3168 102.233 77.9214 99.753 76.2251 98.109L72.703 94.4053C72.548 94.238 72.361 94.1036 72.1531 94.01C71.9452 93.9164 71.7207 93.8633 71.4927 93.8581Z" fill="#3A4747"/>
<path fill-rule="evenodd" clip-rule="evenodd" d="M66.8261 91.3806C65.0412 91.3806 64.4576 93.7738 66.0404 94.5959L70.4799 96.9576C72.485 98.0249 74.0859 95.0207 72.0808 93.9511L67.6413 91.5893C67.3915 91.452 67.1112 91.3793 66.8261 91.3781V91.3806Z" fill="#3A4747"/>
<path fill-rule="evenodd" clip-rule="evenodd" d="M71.479 88.0172C71.0279 88.025 70.5981 88.2109 70.2833 88.5342C69.9686 88.8575 69.7944 89.2919 69.7986 89.7431L69.7895 94.9728C69.7555 97.2754 73.2276 97.2754 73.1958 94.9728L73.2049 89.7431C73.2085 89.5152 73.1664 89.2891 73.0811 89.0778C72.9957 88.8665 72.8688 88.6742 72.7078 88.5129C72.5469 88.3515 72.3552 88.2243 72.1442 88.1384C71.9331 88.0524 71.7069 88.0097 71.479 88.0128V88.0172ZM55.1835 93.8623C54.7416 93.8859 54.3263 94.0806 54.0254 94.4051L50.5056 98.1065C48.807 99.7529 51.4117 102.233 52.9694 100.455L56.4915 96.7532C56.7302 96.5079 56.8894 96.1961 56.9484 95.859C57.0074 95.5218 56.9635 95.1748 56.8223 94.863C56.6811 94.5512 56.4492 94.2893 56.1569 94.1112C55.8646 93.9331 55.5254 93.8472 55.1835 93.8648V93.8623Z" fill="#3A4747"/>
<path fill-rule="evenodd" clip-rule="evenodd" d="M59.8502 91.3806C59.5823 91.3847 59.3198 91.4564 59.0872 91.5893L54.6432 93.9511C52.6381 95.0183 54.239 98.0271 56.2441 96.9598L60.6881 94.5958C62.3004 93.7624 61.6646 91.3215 59.8479 91.3806H59.8502Z" fill="#3A4747"/>
<path fill-rule="evenodd" clip-rule="evenodd" d="M55.2813 93.8581C54.9417 93.8487 54.607 93.941 54.3204 94.1234C54.0337 94.3057 53.8081 94.5697 53.6726 94.8812C53.5371 95.1928 53.4978 95.5376 53.5599 95.8717C53.622 96.2057 53.7826 96.5136 54.021 96.7557L57.5476 100.455C59.1076 102.233 61.7123 99.753 60.0137 98.109L56.4939 94.4053C56.3386 94.2378 56.1513 94.1033 55.943 94.0097C55.7346 93.9161 55.5096 93.863 55.2813 93.8581Z" fill="#3A4747"/>
<path fill-rule="evenodd" clip-rule="evenodd" d="M50.6147 91.3806C48.8298 91.3806 48.2462 93.7738 49.8312 94.5959L54.2707 96.9576C56.2759 98.0249 57.8768 95.0207 55.8716 93.9511L51.4322 91.5893C51.1816 91.4516 50.9005 91.379 50.6147 91.3781V91.3806Z" fill="#3A4747"/>
<path fill-rule="evenodd" clip-rule="evenodd" d="M55.2676 88.0172C54.8165 88.025 54.3867 88.2109 54.0719 88.5342C53.7572 88.8575 53.5829 89.2919 53.5872 89.7431L53.5781 94.9728C53.5463 97.2754 57.0161 97.2754 56.9843 94.9728L56.9934 89.7431C56.9971 89.5152 56.955 89.2891 56.8696 89.0778C56.7842 88.8665 56.6573 88.6742 56.4964 88.5129C56.3355 88.3515 56.1438 88.2243 55.9327 88.1384C55.7216 88.0524 55.4955 88.0097 55.2676 88.0128V88.0172ZM38.9721 93.8623C38.5302 93.8859 38.1148 94.0806 37.814 94.4051L34.2942 98.1065C32.5956 99.7529 35.2002 102.233 36.7603 100.455L40.2801 96.7532C40.5188 96.5079 40.678 96.1961 40.737 95.859C40.796 95.5218 40.752 95.1748 40.6108 94.863C40.4696 94.5512 40.2377 94.2893 39.9454 94.1112C39.6531 93.9331 39.3139 93.8472 38.9721 93.8648V93.8623Z" fill="#3A4747"/>
<path fill-rule="evenodd" clip-rule="evenodd" d="M43.6388 91.3806C43.3709 91.3847 43.1084 91.4564 42.8758 91.5893L38.4318 93.9511C36.4266 95.0183 38.0276 98.0271 40.0327 96.9598L44.4767 94.5958C46.089 93.7624 45.4532 91.3215 43.6388 91.3806Z" fill="#3A4747"/>
<path fill-rule="evenodd" clip-rule="evenodd" d="M39.0697 93.8579C38.7307 93.8499 38.397 93.9434 38.1114 94.1262C37.8258 94.3091 37.6013 94.5731 37.4667 94.8844C37.332 95.1956 37.2933 95.5401 37.3556 95.8734C37.4179 96.2068 37.5783 96.5138 37.8162 96.7555L41.336 100.455C42.8961 102.233 45.5007 99.7529 43.8021 98.1088L40.2823 94.4051C40.1271 94.2376 39.9397 94.1031 39.7314 94.0095C39.5231 93.9159 39.2981 93.8628 39.0697 93.8579Z" fill="#3A4747"/>
<path fill-rule="evenodd" clip-rule="evenodd" d="M34.4054 91.3806C32.6206 91.3806 32.0347 93.7738 33.6197 94.5959L38.0592 96.9576C40.0644 98.0249 41.6653 95.0207 39.6601 93.9511L35.2207 91.5893C34.9701 91.4516 34.689 91.379 34.4032 91.3781L34.4054 91.3806Z" fill="#3A4747"/>
<path fill-rule="evenodd" clip-rule="evenodd" d="M39.0561 88.0172C38.605 88.025 38.1752 88.2109 37.8605 88.5342C37.5457 88.8575 37.3715 89.2919 37.3758 89.7431L37.3667 94.9728C37.3349 97.2754 40.807 97.2754 40.7729 94.9728L40.782 89.7431C40.7857 89.5152 40.7436 89.2891 40.6582 89.0778C40.5728 88.8665 40.4459 88.6742 40.2849 88.5129C40.124 88.3515 39.9324 88.2243 39.7213 88.1384C39.5102 88.0524 39.284 88.0097 39.0561 88.0128V88.0172Z" fill="#3A4747"/>
</svg>
